<svg aria-hidden="true" style="position: absolute; width: 0; height: 0; overflow: hidden;" version="1.1" xmlns="http://www.w3.org/2000/svg" xmlns:xlink="http://www.w3.org/1999/xlink">
<defs>
<symbol id="icon-icons8-facebook--1" viewBox="0 0 32 32">
<path d="M16 1.92c-7.776 0-14.080 6.304-14.080 14.080 0 7.059 5.2 12.888 11.976 13.906v-10.174h-3.484v-3.701h3.484v-2.463c0-4.077 1.987-5.868 5.375-5.868 1.623 0 2.481 0.12 2.888 0.175v3.231h-2.312c-1.439 0-1.941 1.364-1.941 2.901v2.023h4.216l-0.572 3.701h-3.644v10.204c6.872-0.932 12.174-6.808 12.174-13.936 0-7.776-6.304-14.080-14.080-14.080z"></path>
</symbol>

<symbol id="icon-fa-solid_book-open" viewBox="0 0 36 32">
<path fill="#28a745" style="fill: var(--color2, #28a745)" d="M33.47 2.226c-3.383 0.189-10.106 0.877-14.257 3.378-0.286 0.173-0.449 0.479-0.449 0.8v22.11c0 0.702 0.78 1.145 1.437 0.82 4.27-2.116 10.446-2.693 13.5-2.851 1.043-0.054 1.853-0.877 1.853-1.863v-20.529c0.001-1.076-0.948-1.929-2.085-1.865zM16.341 5.603c-4.15-2.501-10.873-3.188-14.256-3.378-1.137-0.063-2.085 0.789-2.085 1.865v20.529c0 0.987 0.81 1.809 1.853 1.863 3.055 0.158 9.234 0.736 13.504 2.853 0.656 0.325 1.433-0.118 1.433-0.818v-22.125c0-0.321-0.162-0.616-0.449-0.789z"></path>
</symbol>
<symbol id="icon-twitter" viewBox="0 0 32 32">
<path d="M32 7.075c-1.175 0.525-2.444 0.875-3.769 1.031 1.356-0.813 2.394-2.1 2.887-3.631-1.269 0.75-2.675 1.3-4.169 1.594-1.2-1.275-2.906-2.069-4.794-2.069-3.625 0-6.563 2.938-6.563 6.563 0 0.512 0.056 1.012 0.169 1.494-5.456-0.275-10.294-2.888-13.531-6.862-0.563 0.969-0.887 2.1-0.887 3.3 0 2.275 1.156 4.287 2.919 5.463-1.075-0.031-2.087-0.331-2.975-0.819 0 0.025 0 0.056 0 0.081 0 3.181 2.263 5.838 5.269 6.437-0.55 0.15-1.131 0.231-1.731 0.231-0.425 0-0.831-0.044-1.237-0.119 0.838 2.606 3.263 4.506 6.131 4.563-2.25 1.762-5.075 2.813-8.156 2.813-0.531 0-1.050-0.031-1.569-0.094 2.913 1.869 6.362 2.95 10.069 2.95 12.075 0 18.681-10.006 18.681-18.681 0-0.287-0.006-0.569-0.019-0.85 1.281-0.919 2.394-2.075 3.275-3.394z"></path>
</symbol>
<symbol id="icon-youtube" viewBox="0 0 32 32">
<path d="M31.681 9.6c0 0-0.313-2.206-1.275-3.175-1.219-1.275-2.581-1.281-3.206-1.356-4.475-0.325-11.194-0.325-11.194-0.325h-0.012c0 0-6.719 0-11.194 0.325-0.625 0.075-1.987 0.081-3.206 1.356-0.963 0.969-1.269 3.175-1.269 3.175s-0.319 2.588-0.319 5.181v2.425c0 2.587 0.319 5.181 0.319 5.181s0.313 2.206 1.269 3.175c1.219 1.275 2.819 1.231 3.531 1.369 2.563 0.244 10.881 0.319 10.881 0.319s6.725-0.012 11.2-0.331c0.625-0.075 1.988-0.081 3.206-1.356 0.962-0.969 1.275-3.175 1.275-3.175s0.319-2.587 0.319-5.181v-2.425c-0.006-2.588-0.325-5.181-0.325-5.181zM12.694 20.15v-8.994l8.644 4.513-8.644 4.481z"></path>
</symbol>
<symbol id="icon-linkedin2" viewBox="0 0 32 32">
<path d="M12 12h5.535v2.837h0.079c0.77-1.381 2.655-2.837 5.464-2.837 5.842 0 6.922 3.637 6.922 8.367v9.633h-5.769v-8.54c0-2.037-0.042-4.657-3.001-4.657-3.005 0-3.463 2.218-3.463 4.509v8.688h-5.767v-18z"></path>
<path d="M2 12h6v18h-6v-18z"></path>
<path d="M8 7c0 1.657-1.343 3-3 3s-3-1.343-3-3c0-1.657 1.343-3 3-3s3 1.343 3 3z"></path>
</symbol>
<symbol id="icon-warning-sign-svgrepo-com" viewBox="0 0 32 32">
<path d="M31.094 22.299l-10.509-18.211c-0.947-1.64-2.697-2.65-4.59-2.65s-3.643 1.010-4.59 2.65l-10.694 18.523c-0.947 1.64-0.947 3.661 0 5.301s2.696 2.65 4.59 2.65h21.387c0.006 0 0.012 0 0.012 0 2.927 0 5.301-2.373 5.301-5.301 0-1.097-0.335-2.119-0.907-2.962zM18.263 24.072c0 1.253-0.964 2.211-2.263 2.211s-2.263-0.959-2.263-2.211v-0.052c0-1.247 0.964-2.212 2.263-2.212s2.263 0.959 2.263 2.212v0.052zM18.315 9.164l-1.12 9.781c-0.075 0.704-0.543 1.143-1.195 1.143s-1.12-0.445-1.195-1.143l-1.12-9.787c-0.075-0.756 0.335-1.328 1.039-1.328h2.546c0.704 0.006 1.12 0.577 1.045 1.334z"></path>
</symbol>
</defs>
</svg>
